# xmcd
#
# Track frame offsets:
#	150
#	11215
#	23632
#	38345
#	49126
#	62799
#	77688
#	90385
#	108141
#	126624
#	138847
#	151066
#
# Disc length: 2202 seconds
#
# Revision: 0
# Processed by: cddbd v1.5.2PL0 Copyright (c) Steve Scherf et al.
# Submitted via: dBpowerAMP V4.0
#
DISCID=8a08980c
DTITLE=Larry Hosford - "aka Lorenzo"
DYEAR=1900
DGENRE=
TTITLE0=Long Distance Kisses
TTITLE1=The King Takes The Queen
TTITLE2=Singers And Dancers
TTITLE3=Long Line To Chicago
TTITLE4=Everything's Broken Down
TTITLE5=Ode To A Broken Coleus
TTITLE6=Red, Right, And Blue
TTITLE7=The Month Of May
TTITLE8=The 1 to 10 Scale
TTITLE9=Wimmin's Got Me Swimmin'
TTITLE10=Taking Applications
TTITLE11=The Easter Song
EXTD=
EXTT0=
EXTT1=
EXTT2=
EXTT3=
EXTT4=
EXTT5=
EXTT6=
EXTT7=
EXTT8=
EXTT9=
EXTT10=
EXTT11=
PLAYORDER=
